<?xml version="1.0" standalone="no"?>
<svg xmlns:xlink="http://www.w3.org/1999/xlink" id="wave" style="transform:rotate(0deg); transition: 0.3s" viewBox="0 0 1440 490" version="1.1" xmlns="http://www.w3.org/2000/svg"><defs><linearGradient id="sw-gradient-0" x1="0" x2="0" y1="1" y2="0"><stop stop-color="rgba(130, 209, 217, 1)" offset="0%"/><stop stop-color="rgba(247, 242, 223, 1)" offset="100%"/></linearGradient></defs><path style="transform:translate(0, 0px); opacity:1" fill="url(#sw-gradient-0)" d="M0,0L17.1,73.5C34.3,147,69,294,103,302.2C137.1,310,171,180,206,138.8C240,98,274,147,309,171.5C342.9,196,377,196,411,163.3C445.7,131,480,65,514,32.7C548.6,0,583,0,617,49C651.4,98,686,196,720,228.7C754.3,261,789,229,823,228.7C857.1,229,891,261,926,302.2C960,343,994,392,1029,367.5C1062.9,343,1097,245,1131,212.3C1165.7,180,1200,212,1234,204.2C1268.6,196,1303,147,1337,163.3C1371.4,180,1406,261,1440,318.5C1474.3,376,1509,408,1543,367.5C1577.1,327,1611,212,1646,187.8C1680,163,1714,229,1749,277.7C1782.9,327,1817,359,1851,343C1885.7,327,1920,261,1954,220.5C1988.6,180,2023,163,2057,171.5C2091.4,180,2126,212,2160,220.5C2194.3,229,2229,212,2263,245C2297.1,278,2331,359,2366,343C2400,327,2434,212,2451,155.2L2468.6,98L2468.6,490L2451.4,490C2434.3,490,2400,490,2366,490C2331.4,490,2297,490,2263,490C2228.6,490,2194,490,2160,490C2125.7,490,2091,490,2057,490C2022.9,490,1989,490,1954,490C1920,490,1886,490,1851,490C1817.1,490,1783,490,1749,490C1714.3,490,1680,490,1646,490C1611.4,490,1577,490,1543,490C1508.6,490,1474,490,1440,490C1405.7,490,1371,490,1337,490C1302.9,490,1269,490,1234,490C1200,490,1166,490,1131,490C1097.1,490,1063,490,1029,490C994.3,490,960,490,926,490C891.4,490,857,490,823,490C788.6,490,754,490,720,490C685.7,490,651,490,617,490C582.9,490,549,490,514,490C480,490,446,490,411,490C377.1,490,343,490,309,490C274.3,490,240,490,206,490C171.4,490,137,490,103,490C68.6,490,34,490,17,490L0,490Z"/></svg>